<mxfile host="Electron" modified="2024-05-24T11:41:03.928Z" agent="Mozilla/5.0 (Windows NT 10.0; Win64; x64) AppleWebKit/537.36 (KHTML, like Gecko) draw.io/24.2.5 Chrome/120.0.6099.109 Electron/28.1.0 Safari/537.36" etag="v-VKqpkqlMXAJPYP5J7M" version="24.2.5" type="device">
  <diagram name="Page-1" id="GeZ4q9c_LSWayCHz3ktu">
    <mxGraphModel dx="650" dy="420" grid="1" gridSize="10" guides="1" tooltips="1" connect="1" arrows="1" fold="1" page="1" pageScale="1" pageWidth="850" pageHeight="1100" math="0" shadow="0">
      <root>
        <mxCell id="0" />
        <mxCell id="1" parent="0" />
        <mxCell id="D4617x1Ep0FOKEcwXozs-3" value="Derslere Kaydolun" style="ellipse;whiteSpace=wrap;html=1;fillColor=#d5e8d4;strokeColor=#82b366;" parent="1" vertex="1">
          <mxGeometry x="290" y="80" width="90" height="70" as="geometry" />
        </mxCell>
        <mxCell id="D4617x1Ep0FOKEcwXozs-4" value="Dersleri Birakin" style="ellipse;whiteSpace=wrap;html=1;fillColor=#d5e8d4;strokeColor=#82b366;" parent="1" vertex="1">
          <mxGeometry x="315" y="150" width="90" height="60" as="geometry" />
        </mxCell>
        <mxCell id="D4617x1Ep0FOKEcwXozs-5" value="Notlari Kontrol Edin" style="ellipse;whiteSpace=wrap;html=1;fillColor=#d5e8d4;strokeColor=#82b366;" parent="1" vertex="1">
          <mxGeometry x="305" y="220" width="110" height="60" as="geometry" />
        </mxCell>
        <mxCell id="D4617x1Ep0FOKEcwXozs-6" value="Kurs Materyallerini Yonetin" style="ellipse;whiteSpace=wrap;html=1;fillColor=#f8cecc;strokeColor=#b85450;" parent="1" vertex="1">
          <mxGeometry x="290" y="380" width="140" height="80" as="geometry" />
        </mxCell>
        <mxCell id="D4617x1Ep0FOKEcwXozs-7" value="Kayitili Orencileri Goruntuleyin" style="ellipse;whiteSpace=wrap;html=1;fillColor=#f8cecc;strokeColor=#b85450;" parent="1" vertex="1">
          <mxGeometry x="300" y="470" width="120" height="80" as="geometry" />
        </mxCell>
        <mxCell id="D4617x1Ep0FOKEcwXozs-10" value="Kayit Memuru" style="text;html=1;align=center;verticalAlign=middle;whiteSpace=wrap;rounded=0;" parent="1" vertex="1">
          <mxGeometry x="699.5" y="340" width="60" height="30" as="geometry" />
        </mxCell>
        <mxCell id="D4617x1Ep0FOKEcwXozs-12" value="Öğrenci" style="text;html=1;align=center;verticalAlign=middle;whiteSpace=wrap;rounded=0;" parent="1" vertex="1">
          <mxGeometry x="25" y="260" width="60" height="30" as="geometry" />
        </mxCell>
        <mxCell id="tv94BUwljileKZ6Z8rxJ-6" value="Ders Ekleme veya Kaldirma" style="ellipse;whiteSpace=wrap;html=1;fillColor=#ffe6cc;strokeColor=#d79b00;" parent="1" vertex="1">
          <mxGeometry x="530" y="180" width="120" height="80" as="geometry" />
        </mxCell>
        <mxCell id="tv94BUwljileKZ6Z8rxJ-8" value="Akadmik Takvimi Yonet" style="ellipse;whiteSpace=wrap;html=1;fillColor=#ffe6cc;strokeColor=#d79b00;" parent="1" vertex="1">
          <mxGeometry x="500" y="280" width="120" height="80" as="geometry" />
        </mxCell>
        <mxCell id="tv94BUwljileKZ6Z8rxJ-13" value="Programı Görüntüleyin" style="ellipse;whiteSpace=wrap;html=1;fillColor=#d5e8d4;strokeColor=#82b366;" parent="1" vertex="1">
          <mxGeometry x="270" y="280" width="110" height="60" as="geometry" />
        </mxCell>
        <mxCell id="tv94BUwljileKZ6Z8rxJ-15" value="Profesor" style="text;html=1;align=center;verticalAlign=middle;whiteSpace=wrap;rounded=0;" parent="1" vertex="1">
          <mxGeometry x="15" y="520" width="60" height="30" as="geometry" />
        </mxCell>
        <mxCell id="tv94BUwljileKZ6Z8rxJ-16" value="" style="shape=umlActor;html=1;verticalLabelPosition=bottom;verticalAlign=top;align=center;fillColor=#f8cecc;strokeColor=#b85450;" parent="1" vertex="1">
          <mxGeometry x="15" y="430" width="50" height="80" as="geometry" />
        </mxCell>
        <mxCell id="tv94BUwljileKZ6Z8rxJ-17" value="" style="shape=umlActor;html=1;verticalLabelPosition=bottom;verticalAlign=top;align=center;fillColor=#d5e8d4;strokeColor=#82b366;" parent="1" vertex="1">
          <mxGeometry x="30" y="180" width="50" height="80" as="geometry" />
        </mxCell>
        <mxCell id="tv94BUwljileKZ6Z8rxJ-21" value="" style="shape=umlActor;html=1;verticalLabelPosition=bottom;verticalAlign=top;align=center;fillColor=#ffe6cc;strokeColor=#d79b00;" parent="1" vertex="1">
          <mxGeometry x="709.5" y="250" width="50" height="80" as="geometry" />
        </mxCell>
        <mxCell id="tv94BUwljileKZ6Z8rxJ-22" value="" style="edgeStyle=none;html=1;endArrow=none;verticalAlign=bottom;rounded=0;" parent="1" target="D4617x1Ep0FOKEcwXozs-3" edge="1">
          <mxGeometry width="160" relative="1" as="geometry">
            <mxPoint x="90" y="180" as="sourcePoint" />
            <mxPoint x="250" y="180" as="targetPoint" />
          </mxGeometry>
        </mxCell>
        <mxCell id="tv94BUwljileKZ6Z8rxJ-23" value="" style="edgeStyle=none;html=1;endArrow=none;verticalAlign=bottom;rounded=0;" parent="1" source="tv94BUwljileKZ6Z8rxJ-17" target="D4617x1Ep0FOKEcwXozs-4" edge="1">
          <mxGeometry width="160" relative="1" as="geometry">
            <mxPoint x="100" y="190" as="sourcePoint" />
            <mxPoint x="302" y="136" as="targetPoint" />
          </mxGeometry>
        </mxCell>
        <mxCell id="tv94BUwljileKZ6Z8rxJ-24" value="" style="edgeStyle=none;html=1;endArrow=none;verticalAlign=bottom;rounded=0;entryX=0;entryY=0;entryDx=0;entryDy=0;" parent="1" target="D4617x1Ep0FOKEcwXozs-5" edge="1">
          <mxGeometry width="160" relative="1" as="geometry">
            <mxPoint x="90" y="227" as="sourcePoint" />
            <mxPoint x="326" y="196" as="targetPoint" />
          </mxGeometry>
        </mxCell>
        <mxCell id="tv94BUwljileKZ6Z8rxJ-25" value="" style="edgeStyle=none;html=1;endArrow=none;verticalAlign=bottom;rounded=0;exitX=0.853;exitY=0.886;exitDx=0;exitDy=0;exitPerimeter=0;" parent="1" source="tv94BUwljileKZ6Z8rxJ-17" target="tv94BUwljileKZ6Z8rxJ-13" edge="1">
          <mxGeometry width="160" relative="1" as="geometry">
            <mxPoint x="100" y="237" as="sourcePoint" />
            <mxPoint x="331" y="239" as="targetPoint" />
          </mxGeometry>
        </mxCell>
        <mxCell id="tv94BUwljileKZ6Z8rxJ-30" value="" style="edgeStyle=none;html=1;endArrow=none;verticalAlign=bottom;rounded=0;exitX=1;exitY=0.3333333333333333;exitDx=0;exitDy=0;exitPerimeter=0;" parent="1" source="tv94BUwljileKZ6Z8rxJ-16" target="D4617x1Ep0FOKEcwXozs-6" edge="1">
          <mxGeometry width="160" relative="1" as="geometry">
            <mxPoint x="70" y="460" as="sourcePoint" />
            <mxPoint x="260" y="450" as="targetPoint" />
          </mxGeometry>
        </mxCell>
        <mxCell id="tv94BUwljileKZ6Z8rxJ-31" value="" style="edgeStyle=none;html=1;endArrow=none;verticalAlign=bottom;rounded=0;exitX=0.677;exitY=0.749;exitDx=0;exitDy=0;exitPerimeter=0;entryX=0;entryY=0;entryDx=0;entryDy=0;" parent="1" source="tv94BUwljileKZ6Z8rxJ-16" target="D4617x1Ep0FOKEcwXozs-7" edge="1">
          <mxGeometry width="160" relative="1" as="geometry">
            <mxPoint x="75" y="467" as="sourcePoint" />
            <mxPoint x="302" y="438" as="targetPoint" />
          </mxGeometry>
        </mxCell>
        <mxCell id="tv94BUwljileKZ6Z8rxJ-32" value="" style="edgeStyle=none;html=1;endArrow=none;verticalAlign=bottom;rounded=0;exitX=0.335;exitY=0.238;exitDx=0;exitDy=0;exitPerimeter=0;" parent="1" source="tv94BUwljileKZ6Z8rxJ-21" target="tv94BUwljileKZ6Z8rxJ-6" edge="1">
          <mxGeometry width="160" relative="1" as="geometry">
            <mxPoint x="59" y="500" as="sourcePoint" />
            <mxPoint x="328" y="492" as="targetPoint" />
          </mxGeometry>
        </mxCell>
        <mxCell id="tv94BUwljileKZ6Z8rxJ-35" value="" style="edgeStyle=none;html=1;endArrow=none;verticalAlign=bottom;rounded=0;exitX=0.263;exitY=0.804;exitDx=0;exitDy=0;exitPerimeter=0;" parent="1" source="tv94BUwljileKZ6Z8rxJ-21" target="tv94BUwljileKZ6Z8rxJ-8" edge="1">
          <mxGeometry width="160" relative="1" as="geometry">
            <mxPoint x="731" y="239" as="sourcePoint" />
            <mxPoint x="660" y="234" as="targetPoint" />
            <Array as="points" />
          </mxGeometry>
        </mxCell>
      </root>
    </mxGraphModel>
  </diagram>
</mxfile>
